<svg width="140" height="141" viewBox="0 0 140 141" fill="none" xmlns="http://www.w3.org/2000/svg">
<path opacity="0.4" d="M69.9993 128.833C102.216 128.833 128.333 102.716 128.333 70.4998C128.333 38.2832 102.216 12.1665 69.9993 12.1665C37.7827 12.1665 11.666 38.2832 11.666 70.4998C11.666 102.716 37.7827 128.833 69.9993 128.833Z" fill="#F9AD91"/>
<path d="M91.6421 93.4248C90.8837 93.4248 90.1254 93.2498 89.4254 92.7831L71.3421 81.9914C66.8504 79.3081 63.5254 73.4164 63.5254 68.2248V44.3081C63.5254 41.9164 65.5087 39.9331 67.9004 39.9331C70.2921 39.9331 72.2754 41.9164 72.2754 44.3081V68.2248C72.2754 70.3248 74.0254 73.4164 75.8337 74.4664L93.9171 85.2581C96.0171 86.4831 96.6587 89.1664 95.4337 91.2664C94.5587 92.6664 93.1004 93.4248 91.6421 93.4248Z" fill="#F9AD91"/>
</svg>
