<svg width="140" height="141" viewBox="0 0 140 141" fill="none" xmlns="http://www.w3.org/2000/svg">
<path opacity="0.4" d="M120.282 49.7918C114.157 22.8418 90.6491 10.7085 69.9991 10.7085C69.9991 10.7085 69.9991 10.7085 69.9408 10.7085C49.3491 10.7085 25.7824 22.7835 19.6574 49.7335C12.8324 79.8335 31.2658 105.325 47.9491 121.367C54.1324 127.317 62.0658 130.292 69.9991 130.292C77.9324 130.292 85.8658 127.317 91.9908 121.367C108.674 105.325 127.107 79.8918 120.282 49.7918Z" fill="#F9AD91"/>
<path d="M70 79.0166C80.1482 79.0166 88.375 70.7898 88.375 60.6416C88.375 50.4934 80.1482 42.2666 70 42.2666C59.8518 42.2666 51.625 50.4934 51.625 60.6416C51.625 70.7898 59.8518 79.0166 70 79.0166Z" fill="#F9AD91"/>
</svg>
