<svg width="140" height="141" viewBox="0 0 140 141" fill="none" xmlns="http://www.w3.org/2000/svg">
<path opacity="0.4" d="M94.734 12.1665H45.2673C29.1673 12.1665 23.334 17.9998 23.334 34.3915V106.608C23.334 123 29.1673 128.833 45.2673 128.833H94.6756C110.834 128.833 116.667 123 116.667 106.608V34.3915C116.667 17.9998 110.834 12.1665 94.734 12.1665Z" fill="#F9AD91"/>
<path d="M81.6673 36.9585H58.334C55.9423 36.9585 53.959 34.9752 53.959 32.5835C53.959 30.1918 55.9423 28.2085 58.334 28.2085H81.6673C84.059 28.2085 86.0423 30.1918 86.0423 32.5835C86.0423 34.9752 84.059 36.9585 81.6673 36.9585Z" fill="#F9AD91"/>
<path d="M69.9993 113.083C75.6373 113.083 80.2077 108.513 80.2077 102.875C80.2077 97.2369 75.6373 92.6665 69.9993 92.6665C64.3614 92.6665 59.791 97.2369 59.791 102.875C59.791 108.513 64.3614 113.083 69.9993 113.083Z" fill="#F9AD91"/>
</svg>
