<svg width="39" height="39" viewBox="0 0 39 39" fill="none" xmlns="http://www.w3.org/2000/svg">
<path d="M11 2C12 2 16 11 16 12C16 14 13 16 12 18C11 20 13 22 15 24C15.78 24.78 19 28 21 27C23 26 25 23 27 23C28 23 37 27 37 28C37 32 34 35 31 36C28 37 26 37 22 36C18 35 15 34 10 29C5 24 4 21 3 17C2 13 2 11 3 8C4 5 7 2 11 2Z" stroke="white" stroke-width="3" stroke-linecap="round" stroke-linejoin="round"/>
<path d="M23 10.0801C24.32 10.7001 25.52 11.5401 26.52 12.5601C27.5 13.5401 28.32 14.7201 28.92 16.0001" stroke="white" stroke-width="2.2" stroke-linecap="round" stroke-linejoin="round" stroke-dasharray="4 4"/>
<path d="M25 2.5C27.82 3.24 30.34 4.7 32.34 6.7C34.32 8.7 35.78 11.2 36.5 14" stroke="white" stroke-width="2.2" stroke-linecap="round" stroke-linejoin="round" stroke-dasharray="6 6"/>
</svg>
