<svg width="70" height="53" viewBox="0 0 70 53" fill="none" xmlns="http://www.w3.org/2000/svg">
<rect x="1" y="1.5" width="68" height="50" rx="7" fill="white"/>
<rect x="1" y="1.5" width="68" height="50" rx="7" stroke="black" stroke-width="2"/>
<path fill-rule="evenodd" clip-rule="evenodd" d="M41 22C41 23.5913 40.3679 25.1174 39.2426 26.2426C38.1174 27.3679 36.5913 28 35 28C33.4087 28 31.8826 27.3679 30.7574 26.2426C29.6321 25.1174 29 23.5913 29 22C29 20.4087 29.6321 18.8826 30.7574 17.7574C31.8826 16.6321 33.4087 16 35 16C36.5913 16 38.1174 16.6321 39.2426 17.7574C40.3679 18.8826 41 20.4087 41 22ZM38 22C38 22.7956 37.6839 23.5587 37.1213 24.1213C36.5587 24.6839 35.7956 25 35 25C34.2044 25 33.4413 24.6839 32.8787 24.1213C32.3161 23.5587 32 22.7956 32 22C32 21.2044 32.3161 20.4413 32.8787 19.8787C33.4413 19.3161 34.2044 19 35 19C35.7956 19 36.5587 19.3161 37.1213 19.8787C37.6839 20.4413 38 21.2044 38 22Z" fill="black"/>
<path fill-rule="evenodd" clip-rule="evenodd" d="M35 10C25.8875 10 18.5 17.3875 18.5 26.5C18.5 35.6125 25.8875 43 35 43C44.1125 43 51.5 35.6125 51.5 26.5C51.5 17.3875 44.1125 10 35 10ZM21.5 26.5C21.5 29.635 22.5695 32.521 24.362 34.813C25.6212 33.1602 27.2452 31.8207 29.1075 30.8991C30.9697 29.9775 33.0197 29.4987 35.0975 29.5C37.1486 29.4976 39.1731 29.9636 41.0167 30.8626C42.8603 31.7615 44.4743 33.0695 45.7355 34.687C47.0352 32.9824 47.9103 30.9928 48.2883 28.8829C48.6664 26.7729 48.5366 24.6033 47.9097 22.5535C47.2828 20.5037 46.1768 18.6326 44.6832 17.0951C43.1896 15.5575 41.3514 14.3978 39.3206 13.7118C37.2898 13.0257 35.1248 12.8332 33.0048 13.15C30.8848 13.4668 28.8707 14.2838 27.1292 15.5336C25.3876 16.7833 23.9687 18.4298 22.9898 20.3368C22.011 22.2438 21.5003 24.3565 21.5 26.5ZM35 40C31.9009 40.005 28.8952 38.9388 26.492 36.982C27.4592 35.5969 28.7468 34.4661 30.2451 33.6857C31.7434 32.9053 33.4081 32.4985 35.0975 32.5C36.7658 32.4985 38.4103 32.8952 39.8945 33.657C41.3787 34.4188 42.6596 35.5237 43.631 36.88C41.2092 38.9005 38.154 40.0049 35 40Z" fill="black"/>
</svg>
